Coordinates
version=1
nRows=5
nColumns=40
inDegrees=yes

Units are S.I. units (second, meters, Newtons, ...)
Angles are in degrees.

endheader
time	pelvis_tilt	pelvis_list	pelvis_rotation	pelvis_tx	pelvis_ty	pelvis_tz	hip_flexion_r	hip_adduction_r	hip_rotation_r	knee_angle_r	knee_angle_r_beta	ankle_angle_r	subtalar_angle_r	mtp_angle_r	hip_flexion_l	hip_adduction_l	hip_rotation_l	knee_angle_l	knee_angle_l_beta	ankle_angle_l	subtalar_angle_l	mtp_angle_l	lumbar_extension	lumbar_bending	lumbar_rotation	arm_flex_r	arm_add_r	arm_rot_r	elbow_flex_r	pro_sup_r	wrist_flex_r	wrist_dev_r	arm_flex_l	arm_add_l	arm_rot_l	elbow_flex_l	pro_sup_l	wrist_flex_l	wrist_dev_l
     43.59800000	     -2.48070452	     -4.62898179	     -1.97435488	      1.05927093	      0.93611949	      0.40163682	     31.27813301	     -5.94649282	     -4.50905389	     53.04314577	     53.04314577	     -0.54986762	    -11.71377084	     -1.25392254	     11.14259216	     -5.12669745	     -8.41476389	     20.78142768	     20.78142768	     13.67571064	    -12.19883154	      1.55174337	    -11.22431779	      6.36795315	      1.56197440	     -0.57496609	    -12.30189358	     -1.47518827	     26.53599384	     46.12618448	      0.00000000	      0.00000000	     23.28020196	    -19.64644001	     -5.64510444	     54.70464833	     46.69620960	      0.00000000	      0.00000000
     43.61100000	     -2.76198123	     -4.71042310	     -2.40367436	      1.05793298	      0.93628328	      0.40216134	     31.49465399	     -5.59421770	     -4.79826628	     49.39200872	     49.39200872	     -0.19221348	    -10.82285240	     -1.16285676	     10.84182304	     -5.24023830	     -8.76738838	     20.29961497	     20.29961497	     13.74866198	    -12.12109573	      1.49887487	    -11.10818620	      6.45918169	      1.39077197	     -1.92540646	    -12.28337520	     -1.43477915	     26.31042888	     46.12082392	      0.00000000	      0.00000000	     24.14594403	    -20.28526183	     -6.03823408	     55.64588279	     46.75181306	      0.00000000	      0.00000000
     43.62400000	     -2.94486938	     -4.76854087	     -2.84266386	      1.05671488	      0.93649084	      0.40279806	     31.38245407	     -5.25369398	     -5.16139636	     45.33502058	     45.33502058	      0.18727172	     -9.66422242	     -1.17311278	     10.39347544	     -5.33946026	     -9.19981311	     19.76804115	     19.76804115	     13.79284556	    -11.94451635	      1.38185116	    -11.14853909	      6.51426810	      1.41343644	     -3.30075448	    -12.32784175	     -1.45678581	     26.24011570	     46.11339754	      0.00000000	      0.00000000	     24.94198095	    -20.76179657	     -6.50244973	     56.96706639	     46.81770909	      0.00000000	      0.00000000
     43.63700000	     -3.25540804	     -4.77057459	     -3.26706721	      1.05546173	      0.93635012	      0.40362169	     31.26455017	     -4.89413937	     -5.47684738	     41.04359781	     41.04359781	      0.52752105	     -8.39234771	     -1.05495682	     10.13269746	     -5.39648757	     -9.62443415	     19.30653897	     19.30653897	     13.85236847	    -11.79707145	      1.24185913	    -11.03080330	      6.51283490	      1.38029934	     -4.55934144	    -12.26613589	     -1.51411720	     26.20349135	     46.10785684	      0.00000000	      0.00000000	     25.70112073	    -21.33158650	     -6.94335537	     58.14198512	     46.87847717	      0.00000000	      0.00000000
     43.65000000	     -3.35328300	     -4.70307781	     -3.66555230	      1.05449411	      0.93626175	      0.40445798	     30.65134905	     -4.65975263	     -6.03747315	     36.37103592	     36.37103592	      0.25444120	     -6.90254252	     -2.63314958	      9.61840954	     -5.41433126	    -10.30833971	     18.83352072	     18.83352072	     13.68776175	    -11.36980837	      0.18591558	    -11.26919010	      6.40249304	      1.16514362	     -6.28222899	    -12.33106679	     -2.18066904	     28.19059926	     46.06131431	      0.00000000	      0.00000000	     25.39032159	    -21.76979333	     -8.52320890	     61.92166153	     47.07111403	      0.00000000	      0.00000000
